<?xml version="1.0" encoding="UTF-8"?>
<svg xmlns="http://www.w3.org/2000/svg" version="1.1" width="500" height="500" style="background-color:transparent;">
  <path d="M0 0 C165 0 330 0 500 0 C500 165 500 330 500 500 C335 500 170 500 0 500 C0 335 0 170 0 0 Z " fill="#000000" transform="translate(0,0)"/>
  <path d="M0 0 C8.41451289 5.41916277 11.19774272 13.79696823 14.13439941 22.87164307 C15.36906903 26.67666652 16.67272736 30.45799979 17.97241211 34.24121094 C18.23502838 35.00927063 18.49764465 35.77733032 18.76821899 36.56866455 C24.90606828 54.37643714 32.41214233 71.71993264 41.16381836 88.39355469 C42.18731734 90.49642603 43.20829129 92.60052888 44.22631836 94.70605469 C48.5948176 103.39633126 54.00895211 111.31475697 59.66381836 119.20605469 C60.10234131 119.82843018 60.54086426 120.45080566 60.99267578 121.09204102 C64.22665618 125.52872665 67.86510169 128.98831216 72.16381836 132.39355469 C102.85801385 104.25268165 118.46822502 58.95812105 131.20019531 20.30664062 C134.15619992 11.36031635 137.02658159 5.18532468 144.78881836 -0.54394531 C150.96908973 -3.30880356 158.36555893 -3.8502219 164.82397461 -1.73535156 C172.06192754 1.59432513 176.15936745 5.85235808 180.03881836 12.70605469 C183.19860747 23.06314122 179.71053006 31.77457612 175.91381836 41.45605469 C175.36913787 42.87459204 174.82446017 44.29313047 174.27978516 45.71166992 C162.60926647 75.77721296 146.85549553 109.6463135 121.16381836 130.39355469 C120.43936523 131.02777344 119.71491211 131.66199219 118.96850586 132.31542969 C102.69139621 146.17514681 84.40171145 151.85410644 63.17407227 150.56494141 C58.78273783 150.19055268 55.17030789 149.20195498 51.16381836 147.39355469 C50.58599609 147.1407373 50.00817383 146.88791992 49.4128418 146.62744141 C10.05744624 129.16360817 -12.61993931 89.32740233 -27.84936523 50.86181641 C-28.9072263 48.21585515 -30.00605706 45.58880384 -31.10571289 42.95996094 C-39.19519467 23.24784083 -39.19519467 23.24784083 -36.16040039 13.14355469 C-33.40903112 6.743894 -28.52707374 2.02919499 -22.64868164 -1.54394531 C-15.05660839 -3.65976901 -7.06460358 -3.86256285 0 0 Z " fill="#EFEDEB" transform="translate(174.836181640625,52.6064453125)"/>
  <path d="M0 0 C6.5557336 3.97874976 10.72040771 9.75811478 12.80859375 17.09765625 C14.190826 25.3340505 11.10987891 31.57804365 6.68359375 38.34765625 C-0.37682036 45.10109584 -10.2836266 47.62846669 -19.37890625 50.59765625 C-55.9464181 62.82529915 -95.72348922 78.19297022 -123.19140625 106.09765625 C-95.75874658 136.56341097 -51.10540292 152.49740034 -13.16015625 165.12890625 C-12.24862793 165.43465576 -11.33709961 165.74040527 -10.39794922 166.05541992 C-8.75127024 166.60062733 -7.09956913 167.13104468 -5.44189453 167.6418457 C1.41453588 169.89073671 7.74918262 174.19266194 11.1484375 180.78515625 C13.07533102 187.53498443 13.15706327 196.09958515 10.30859375 202.59765625 C7.11108855 207.79076754 2.4245444 211.7302275 -2.94140625 214.53515625 C-12.69257901 216.22285923 -20.8079141 214.82343559 -29.94140625 211.28515625 C-31.01269775 210.88353271 -32.08398926 210.48190918 -33.18774414 210.06811523 C-72.03196199 195.21900817 -115.2951376 173.89019355 -134.76171875 134.95703125 C-141.51756492 119.50353882 -143.82822711 103.84029786 -138.5859375 87.61328125 C-134.59623669 77.55521198 -129.34639782 68.25234724 -122.19140625 60.09765625 C-120.99064453 58.69966797 -120.99064453 58.69966797 -119.765625 57.2734375 C-97.20735833 31.51577124 -66.1701799 16.38440816 -34.72216797 4.09033203 C-32.47361534 3.20835104 -30.24013086 2.2970326 -28.0078125 1.375 C-18.89184196 -2.20948349 -9.30846815 -4.1607498 0 0 Z " fill="#EFEDEB" transform="translate(437.19140625,145.90234375)"/>
  <path d="M0 0 C2.64260766 1.11542298 5.29688643 2.19674375 7.95605469 3.27197266 C25.57113371 10.4965366 43.4118652 18.75704249 58.74511719 30.15869141 C59.28362305 30.5534668 59.82212891 30.94824219 60.37695312 31.35498047 C79.87100909 45.73692047 99.61095611 65.14630655 103.74511719 90.15869141 C104.00547304 93.47745674 104.02552864 96.76867172 103.99511719 100.09619141 C104.00285156 100.93859375 104.01058594 101.78099609 104.01855469 102.64892578 C103.94668747 125.98780349 90.0353203 144.29634692 74.22192383 160.12084961 C67.02614904 167.10084175 59.19033248 172.79134832 50.74511719 178.15869141 C49.72297119 178.8112793 49.72297119 178.8112793 48.68017578 179.47705078 C-8.45076225 215.48520338 -8.45076225 215.48520338 -30.17285156 210.91650391 C-38.2652219 207.9710633 -43.04033872 204.08429284 -47.19628906 196.52587891 C-49.79086224 190.72399202 -50.4226125 184.64093464 -48.38378906 178.56103516 C-44.27050653 169.61970296 -39.32989117 165.68558317 -30.19238281 162.28369141 C-28.01618503 161.50268931 -25.83456325 160.74002228 -23.64892578 159.98583984 C14.7086432 146.73319414 57.67384966 131.75131923 86.74511719 102.15869141 C61.54879781 74.50419453 22.00607585 59.19605902 -12.60253906 47.22119141 C-13.64773712 46.85825737 -13.64773712 46.85825737 -14.71405029 46.48799133 C-18.10217138 45.31524271 -21.49521777 44.16207906 -24.89990234 43.03833008 C-34.45848811 39.78332165 -42.27044147 36.36073697 -47.25488281 27.15869141 C-49.82629379 21.37301672 -50.39979977 15.64136902 -48.41503906 9.60400391 C-45.29385488 2.68905713 -40.7724306 -2.68520624 -33.84863281 -5.98974609 C-21.85312625 -9.92802988 -10.94898887 -4.62397544 0 0 Z " fill="#EFEDEB" transform="translate(93.2548828125,150.84130859375)"/>
  <path d="M0 0 C2.77627804 2.57115785 5.4041576 5.24828715 8 8 C8.804375 8.78375 9.60875 9.5675 10.4375 10.375 C11.283125 11.24125 12.12875 12.1075 13 13 C13.94939453 13.95519531 13.94939453 13.95519531 14.91796875 14.9296875 C33.57187727 34.54105327 44.91637032 61.25926708 55 86 C55.36561035 86.89364258 55.7312207 87.78728516 56.10791016 88.70800781 C57.13688393 91.25527073 58.13749216 93.81141024 59.125 96.375 C59.56839722 97.4882666 59.56839722 97.4882666 60.02075195 98.62402344 C62.85646269 106.2471066 62.84655141 113.32245614 59.9609375 120.93359375 C57.08414032 127.11987712 52.97434207 130.27265418 46.8828125 133.08203125 C40.3309489 135.16832928 33.00088631 135.25547025 26.625 132.5 C17.88903183 127.16646154 14.77870413 119.7535747 11.75585938 110.31494141 C4.00283261 86.57004483 -5.20118822 63.04398433 -17 41 C-17.38510742 40.27377441 -17.77021484 39.54754883 -18.16699219 38.79931641 C-25.96015501 24.1740033 -34.48638968 10.99434561 -46 -1 C-59.02607037 9.19431594 -66.97521311 22.81512968 -75 37 C-75.42780762 37.74572266 -75.85561523 38.49144531 -76.29638672 39.25976562 C-89.99098164 63.31358011 -101.07423781 90.80711688 -108.53515625 117.421875 C-110.50568197 124.0958737 -114.26321259 128.33646255 -120.1875 131.9375 C-127.82749018 134.82371851 -135.67520126 135.21773318 -143.2578125 131.8984375 C-150.1822459 128.32754135 -153.59146557 122.2256033 -156 115 C-156.62766054 108.09573409 -155.61436772 102.37406269 -153.1875 95.9375 C-152.8790918 95.09243896 -152.57068359 94.24737793 -152.25292969 93.37670898 C-143.02198893 68.64969576 -131.87744079 44.19439495 -116 23 C-115.27425781 22.030625 -114.54851562 21.06125 -113.80078125 20.0625 C-101.20086194 4.03894273 -87.07662626 -8.38861882 -68 -16 C-66.96875 -16.4125 -65.9375 -16.825 -64.875 -17.25 C-41.14627428 -23.44010236 -18.2830444 -15.33512682 0 0 Z " fill="#EFEDEB" transform="translate(294,321)"/>
  <path d="M0 0 C8.41451289 5.41916277 11.19774272 13.79696823 14.13439941 22.87164307 C15.36906903 26.67666652 16.67272736 30.45799979 17.97241211 34.24121094 C18.23502838 35.00927063 18.49764465 35.77733032 18.76821899 36.56866455 C24.90606828 54.37643714 32.41214233 71.71993264 41.16381836 88.39355469 C42.18731734 90.49642603 43.20829129 92.60052888 44.22631836 94.70605469 C48.60362723 103.41385629 54.0250355 111.32540892 59.72631836 119.20605469 C60.17322021 119.82843018 60.62012207 120.45080566 61.08056641 121.09204102 C64.13109122 125.24648041 67.44288209 128.82560845 71.16381836 132.39355469 C68.97460056 137.88474188 64.08577391 140.49180477 59.16381836 143.39355469 C56.83049643 144.27586818 54.59875705 144.82367542 52.16381836 145.39355469 C51.83381836 146.05355469 51.50381836 146.71355469 51.16381836 147.39355469 C10.84904431 128.86635429 -12.00907825 90.87027916 -27.84936523 50.86181641 C-28.9072263 48.21585515 -30.00605706 45.58880384 -31.10571289 42.95996094 C-39.19519467 23.24784083 -39.19519467 23.24784083 -36.16040039 13.14355469 C-33.40903112 6.743894 -28.52707374 2.02919499 -22.64868164 -1.54394531 C-15.05660839 -3.65976901 -7.06460358 -3.86256285 0 0 Z " fill="#ABAAA6" transform="translate(174.836181640625,52.6064453125)"/>
  <path d="M0 0 C6.5557336 3.97874976 10.72040771 9.75811478 12.80859375 17.09765625 C14.190826 25.3340505 11.10987891 31.57804365 6.68359375 38.34765625 C-0.37682036 45.10109584 -10.2836266 47.62846669 -19.37890625 50.59765625 C-74.63056328 68.99112532 -74.63056328 68.99112532 -120.2265625 103.41015625 C-122.19140625 105.09765625 -122.19140625 105.09765625 -124.2578125 105.0625 C-130.53229246 101.93159788 -135.00119029 92.45251932 -137.19140625 86.09765625 C-136.87890625 83.16015625 -136.87890625 83.16015625 -135.19140625 80.09765625 C-134.78148437 79.27523437 -134.3715625 78.4528125 -133.94921875 77.60546875 C-114.44055734 39.53721594 -72.68812463 18.93249002 -34.72216797 4.09033203 C-32.47361534 3.20835104 -30.24013086 2.2970326 -28.0078125 1.375 C-18.89184196 -2.20948349 -9.30846815 -4.1607498 0 0 Z " fill="#ABAAA6" transform="translate(437.19140625,145.90234375)"/>
  <path d="M0 0 C1.8984375 0.07421875 1.8984375 0.07421875 4 1 C5.8515625 3.14453125 5.8515625 3.14453125 7.625 5.8125 C8.21539062 6.68519531 8.80578125 7.55789063 9.4140625 8.45703125 C13 14.20689655 13 14.20689655 13 18 C13.66 18 14.32 18 15 18 C7.39474642 42.66169608 -13.84292914 61.55365742 -35 75 C-36.022146 75.65258789 -36.022146 75.65258789 -37.06494141 76.31835938 C-94.19587944 112.32651197 -94.19587944 112.32651197 -115.91796875 107.7578125 C-124.01033909 104.81237189 -128.78545591 100.92560143 -132.94140625 93.3671875 C-135.53597943 87.56530061 -136.16772969 81.48224324 -134.12890625 75.40234375 C-130.01562372 66.46101155 -125.07500836 62.52689177 -115.9375 59.125 C-113.76130222 58.3439979 -111.57968044 57.58133087 -109.39404297 56.82714844 C-71.49949763 43.73447868 -28.95908293 28.95908293 0 0 Z " fill="#ACABA7" transform="translate(179,254)"/>
  <path d="M0 0 C5.25862505 3.33803037 9.84591021 7.01955749 14.36328125 11.296875 C16.22589207 13.05692643 18.12296644 14.65570325 20.125 16.25 C42.59006626 35.58040585 55.66991316 67.64944677 66.5625 94.375 C66.92811035 95.26864258 67.2937207 96.16228516 67.67041016 97.08300781 C68.69938393 99.63027073 69.69999216 102.18641024 70.6875 104.75 C70.98309814 105.49217773 71.27869629 106.23435547 71.58325195 106.99902344 C74.41896269 114.6221066 74.40905141 121.69745614 71.5234375 129.30859375 C68.64664032 135.49487712 64.53684207 138.64765418 58.4453125 141.45703125 C51.8934489 143.54332928 44.56338631 143.63047025 38.1875 140.875 C29.45153183 135.54146154 26.34120413 128.1285747 23.31835938 118.68994141 C15.56533261 94.94504483 6.36131178 71.41898433 -5.4375 49.375 C-5.82260742 48.64877441 -6.20771484 47.92254883 -6.60449219 47.17431641 C-14.39765501 32.5490033 -22.92388968 19.36934561 -34.4375 7.375 C-32.23576657 1.84025575 -27.29163666 -0.56733386 -22.4375 -3.625 C-21.81101562 -4.02847656 -21.18453125 -4.43195313 -20.5390625 -4.84765625 C-13.1975212 -8.82863287 -6.37482882 -3.73800186 0 0 Z " fill="#ACABA7" transform="translate(282.4375,312.625)"/>
  <path d="M0 0 C7.64419213 4.32063033 11.90427827 9.43025609 14.859375 17.70703125 C17.17396615 26.69536021 15.82418911 33.75799332 11.328125 41.8046875 C8.84122051 45.51303623 6.34694393 48.0810009 2.5625 50.4375 C1.90636719 50.84742188 1.25023437 51.25734375 0.57421875 51.6796875 C-5.82758179 55.0736951 -12.33410041 55.52205169 -19.4375 54.4375 C-28.15807472 51.50647548 -34.24662189 47.20716953 -38.6796875 39.19140625 C-42.03286701 31.96472626 -43.11100189 24.30711616 -40.484375 16.6640625 C-39.2811127 14.12807297 -37.95242297 11.79874865 -36.4375 9.4375 C-35.756875 8.365 -35.07625 7.2925 -34.375 6.1875 C-25.33598245 -3.66812661 -11.73887267 -5.38333963 0 0 Z " fill="#EEECEA" transform="translate(41.4375,226.5625)"/>
  <path d="M0 0 C6.11405093 4.36845806 10.58808471 10.68782892 12.66796875 17.90625 C13.77299398 27.630472 11.99701092 35.87023987 6.04296875 43.71875 C0.56127251 49.64907612 -7.81300152 52.99505746 -15.76953125 53.34375 C-23.72148738 53.26664012 -30.17037108 50.34087315 -36.27734375 45.30078125 C-41.8203173 39.43748511 -44.49841768 32.00487224 -44.95703125 24.03125 C-44.64866102 15.77968795 -41.09045777 8.05164429 -35.01953125 2.40625 C-33.2265625 1.0859375 -33.2265625 1.0859375 -31.33203125 -0.09375 C-30.67589844 -0.50367188 -30.01976562 -0.91359375 -29.34375 -1.3359375 C-19.610598 -6.49610949 -9.38417087 -5.25612741 0 0 Z " fill="#EEECEA" transform="translate(481.33203125,228.09375)"/>
  <path d="M0 0 C6.73416512 4.32404286 11.31633474 9.57400421 13.85546875 17.19140625 C14.65194268 28.08090222 13.89017967 36.19861202 7.10546875 45.00390625 C3.86308524 48.5410519 0.26510786 50.41864225 -4.14453125 52.19140625 C-5.11390625 52.60390625 -6.08328125 53.01640625 -7.08203125 53.44140625 C-15.16164809 55.42008792 -21.86124944 54.16730405 -29.14453125 50.19140625 C-36.09256231 45.46770183 -39.52743683 40.0426895 -42.14453125 32.19140625 C-42.74566622 23.88391809 -43.26756479 16.15552998 -38.14453125 9.19140625 C-37.73203125 8.57910156 -37.31953125 7.96679688 -36.89453125 7.3359375 C-28.38014804 -4.00851059 -12.40626447 -6.68029625 0 0 Z " fill="#EEECEA" transform="translate(261.14453125,8.80859375)"/>
  <path d="M0 0 C6.73416512 4.32404286 11.31633474 9.57400421 13.85546875 17.19140625 C14.65194268 28.08090222 13.89017967 36.19861202 7.10546875 45.00390625 C2.612047 49.93180644 -3.74553007 52.90300615 -10.3671875 53.46484375 C-19.84089782 53.71542001 -26.88855305 52.86892765 -34.203125 46.359375 C-41.60805666 38.55417676 -42.73463602 31.37947619 -42.4921875 20.75390625 C-42.03375875 16.05629925 -40.91958556 12.96374571 -38.14453125 9.19140625 C-37.73203125 8.57910156 -37.31953125 7.96679688 -36.89453125 7.3359375 C-28.38014804 -4.00851059 -12.40626447 -6.68029625 0 0 Z " fill="#EEECEA" transform="translate(261.14453125,445.80859375)"/>
</svg>
